<svg version="1.1" viewBox="0.0 0.0 516.3832020997376 512.992125984252" fill="none" stroke="none" stroke-linecap="square" stroke-miterlimit="10" xmlns:xlink="http://www.w3.org/1999/xlink" xmlns="http://www.w3.org/2000/svg"><clipPath id="p.0"><path d="m0 0l516.3832 0l0 512.9921l-516.3832 0l0 -512.9921z" clip-rule="nonzero"/></clipPath><g clip-path="url(#p.0)"><path fill="#000000" fill-opacity="0.0" d="m0 0l516.3832 0l0 512.9921l-516.3832 0z" fill-rule="evenodd"/><path fill="#0c1178" d="m-0.5800525 -1.9790026l516.378 0l0 514.3937l-516.378 0z" fill-rule="evenodd"/><path stroke="#0c1178" stroke-width="1.0" stroke-linejoin="round" stroke-linecap="butt" d="m-0.5800525 -1.9790026l516.378 0l0 514.3937l-516.378 0z" fill-rule="evenodd"/><path fill="#000000" fill-opacity="0.0" d="m-0.0131233595 25.267717l516.3779 0l0 102.20473l-516.3779 0z" fill-rule="evenodd"/><path fill="#efefef" d="m158.02113 111.06771l-18.078125 -24.640625l-18.0 24.640625l-6.796875 0l21.28125 -28.796875l-19.921875 -27.203125l6.796875 0l16.890625 22.875l16.796875 -22.875l6.390625 0l-19.828125 27.046875l21.359375 28.953125l-6.890625 0zm55.044327 -5.125l0 5.125l-39.59375 0l0 -56.0l38.390625 0l0 5.125l-32.46875 0l0 19.921875l28.953125 0l0 5.03125l-28.953125 0l0 20.796875l33.671875 0zm60.723053 -50.875l0 56.0l-4.875 0l-35.999985 -45.4375l0 45.4375l-5.921875 0l0 -56.0l4.875 0l36.07811 45.4375l0 -45.4375l5.84375 0zm42.711823 56.484375q-8.3125 0 -15.078125 -3.71875q-6.75 -3.71875 -10.5625 -10.203125q-3.796875 -6.484375 -3.796875 -14.5625q0 -8.078125 3.796875 -14.5625q3.8125 -6.484375 10.5625 -10.203125q6.765625 -3.71875 15.078125 -3.71875q8.328125 0 15.0 3.6875q6.6875 3.671875 10.515625 10.203125q3.84375 6.515625 3.84375 14.59375q0 8.078125 -3.84375 14.609375q-3.828125 6.515625 -10.515625 10.203125q-6.671875 3.671875 -15.0 3.671875zm0 -5.28125q6.640625 0 12.0 -3.0q5.359375 -3.0 8.40625 -8.3125q3.046875 -5.328125 3.046875 -11.890625q0 -6.5625 -3.046875 -11.875q-3.046875 -5.328125 -8.40625 -8.328125q-5.359375 -3.0 -12.0 -3.0q-6.640625 0 -12.046875 3.0q-5.390625 3.0 -8.46875 8.328125q-3.078125 5.3125 -3.078125 11.875q0 6.5625 3.078125 11.890625q3.078125 5.3125 8.46875 8.3125q5.40625 3.0 12.046875 3.0zm89.44806 -51.203125l0 56.0l-4.875 0l-36.0 -45.4375l0 45.4375l-5.921875 0l0 -56.0l4.875 0l36.078125 45.4375l0 -45.4375l5.84375 0z" fill-rule="nonzero"/><path fill="#efefef" d="m164.83171 151.0677l22.796875 0q8.875 0 15.671875 3.5625q6.8125 3.5625 10.5625 9.921875q3.765625 6.359375 3.765625 14.515625q0 8.15625 -3.765625 14.515625q-3.75 6.359375 -10.5625 9.921875q-6.796875 3.5625 -15.671875 3.5625l-22.796875 0l0 -56.0zm22.46875 50.875q7.359375 0 12.875 -2.90625q5.53125 -2.921875 8.5625 -8.078125q3.046875 -5.171875 3.046875 -11.890625q0 -6.71875 -3.046875 -11.875q-3.03125 -5.171875 -8.5625 -8.078125q-5.515625 -2.921875 -12.875 -2.921875l-16.546875 0l0 45.75l16.546875 0zm77.92055 -9.828125l-31.187485 0l-6.734375 14.953125l-6.15625 0l25.609375 -56.0l5.828125 0l25.60936 56.0l-6.25 0l-6.71875 -14.953125zm-2.15625 -4.8125l-13.437485 -30.078125l-13.4375 30.078125l26.874985 0zm79.99744 24.484375q-2.5625 3.125 -6.046875 4.765625q-3.46875 1.640625 -7.546875 1.640625q-4.96875 0 -9.40625 -2.453125q-4.4375 -2.4375 -9.953125 -8.1875q-8.078125 -0.25 -14.5625 -4.0q-6.484375 -3.765625 -10.171875 -10.15625q-3.671875 -6.40625 -3.671875 -14.328125q0 -8.078125 3.796875 -14.5625q3.8125 -6.484375 10.5625 -10.203125q6.765625 -3.71875 15.078125 -3.71875q8.328125 0 15.0 3.6875q6.6875 3.671875 10.515625 10.203125q3.84375 6.515625 3.84375 14.59375q0 7.046875 -2.921875 12.921875q-2.90625 5.875 -8.15625 9.796875q-5.234375 3.921875 -12.03125 5.203125q6.15625 6.484375 12.15625 6.484375q6.234375 0 10.640625 -5.125l2.875 3.4375zm-55.515625 -32.71875q0 6.5625 3.078125 11.84375q3.078125 5.28125 8.46875 8.328125q5.40625 3.03125 12.046875 3.03125q6.640625 0 12.0 -3.03125q5.359375 -3.046875 8.40625 -8.328125q3.046875 -5.28125 3.046875 -11.84375q0 -6.5625 -3.046875 -11.84375q-3.046875 -5.28125 -8.40625 -8.3125q-5.359375 -3.046875 -12.0 -3.046875q-6.640625 0 -12.046875 3.046875q-5.390625 3.03125 -8.46875 8.3125q-3.078125 5.28125 -3.078125 11.84375z" fill-rule="nonzero"/><path fill="#0c1178" d="m67.05774 295.6929l144.44095 0l0 233.29135l-144.44095 0z" fill-rule="evenodd"/><path stroke="#efefef" stroke-width="1.0" stroke-linejoin="round" stroke-linecap="butt" d="m67.05774 295.6929l144.44095 0l0 233.29135l-144.44095 0z" fill-rule="evenodd"/><path fill="#0c1178" d="m-253.25722 216.85039l219.02362 0l0 267.74805l-219.02362 0z" fill-rule="evenodd"/><path stroke="#ffffff" stroke-width="1.0" stroke-linejoin="round" stroke-linecap="butt" d="m-253.25722 216.85039l219.02362 0l0 267.74805l-219.02362 0z" fill-rule="evenodd"/><path fill="#efefef" d="m29.766405 363.99213l0 0c0 -58.315247 49.02881 -105.58942 109.509674 -105.590546c60.48088 -0.0011291504 109.5116 47.27118 109.51395 105.586426l-37.16153 0.0014038086c-0.0015869141 -37.79178 -32.394318 -68.42703 -72.351715 -68.4263c-39.95739 7.6293945E-4 -72.34884 30.637238 -72.34884 68.429016z" fill-rule="evenodd"/><path stroke="#efefef" stroke-width="1.0" stroke-linejoin="round" stroke-linecap="butt" d="m29.766405 363.99213l0 0c0 -58.315247 49.02881 -105.58942 109.509674 -105.590546c60.48088 -0.0011291504 109.5116 47.27118 109.51395 105.586426l-37.16153 0.0014038086c-0.0015869141 -37.79178 -32.394318 -68.42703 -72.351715 -68.4263c-39.95739 7.6293945E-4 -72.34884 30.637238 -72.34884 68.429016z" fill-rule="evenodd"/><path fill="#efefef" d="m29.766405 361.9344l37.291336 0l0 193.32281l-37.291336 0z" fill-rule="evenodd"/><path stroke="#efefef" stroke-width="1.0" stroke-linejoin="round" stroke-linecap="butt" d="m29.766405 361.9344l37.291336 0l0 193.32281l-37.291336 0z" fill-rule="evenodd"/><path fill="#efefef" d="m211.49869 361.9344l37.291336 0l0 193.32281l-37.291336 0z" fill-rule="evenodd"/><path stroke="#efefef" stroke-width="1.0" stroke-linejoin="round" stroke-linecap="butt" d="m211.49869 361.9344l37.291336 0l0 193.32281l-37.291336 0z" fill-rule="evenodd"/><path fill="#0c1178" d="m268.19684 277.8084l231.40158 0l0 268.40942l-231.40158 0z" fill-rule="evenodd"/><path stroke="#6a6ca0" stroke-width="4.0" stroke-linejoin="round" stroke-linecap="butt" d="m268.19684 277.8084l231.40158 0l0 268.40942l-231.40158 0z" fill-rule="evenodd"/><path fill="#efefef" d="m501.65353 258.40158l0 37.29132l-235.37006 0l0 -37.29132z" fill-rule="evenodd"/><path stroke="#efefef" stroke-width="1.0" stroke-linejoin="round" stroke-linecap="butt" d="m501.65353 258.40158l0 37.29132l-235.37006 0l0 -37.29132z" fill-rule="evenodd"/><path fill="#000000" fill-opacity="0.0" d="m266.39896 350.7244l235.24408 0" fill-rule="evenodd"/><path stroke="#6a6ca0" stroke-width="4.0" stroke-linejoin="round" stroke-linecap="butt" d="m266.39896 350.7244l235.24408 0" fill-rule="evenodd"/><path fill="#000000" fill-opacity="0.0" d="m266.55905 430.7244l235.08661 0" fill-rule="evenodd"/><path stroke="#6a6ca0" stroke-width="4.0" stroke-linejoin="round" stroke-linecap="butt" d="m266.55905 430.7244l235.08661 0" fill-rule="evenodd"/><path fill="#efefef" d="m364.60892 258.40158l37.29135 0l0 254.58267l-37.29135 0z" fill-rule="evenodd"/><path stroke="#efefef" stroke-width="1.0" stroke-linejoin="round" stroke-linecap="butt" d="m364.60892 258.40158l37.29135 0l0 254.58267l-37.29135 0z" fill-rule="evenodd"/></g></svg>