<svg version="1.1" viewBox="0.0 0.0 2512.97375328084 379.99212598425197" fill="none" stroke="none" stroke-linecap="square" stroke-miterlimit="10" xmlns:xlink="http://www.w3.org/1999/xlink" xmlns="http://www.w3.org/2000/svg"><clipPath id="p.0"><path d="m0 0l2512.9736 0l0 379.99213l-2512.9736 0l0 -379.99213z" clip-rule="nonzero"/></clipPath><g clip-path="url(#p.0)"><path fill="#000000" fill-opacity="0.0" d="m0 0l2512.9736 0l0 379.99213l-2512.9736 0z" fill-rule="evenodd"/><path fill="#0c1178" d="m-3.944882 0l2519.622 0l0 386.3622l-2519.622 0z" fill-rule="evenodd"/><path stroke="#0c1178" stroke-width="1.0" stroke-linejoin="round" stroke-linecap="butt" d="m-3.944882 0l2519.622 0l0 386.3622l-2519.622 0z" fill-rule="evenodd"/><path fill="#000000" fill-opacity="0.0" d="m2.0262468 -32.27559l1417.4489 0l0 254.58267l-1417.4489 0z" fill-rule="evenodd"/><path fill="#efefef" d="m185.04187 309.52438q-5.1875 -10.40625 -12.46875 -23.046875q-7.28125 -12.65625 -15.953125 -26.34375q-8.671875 -13.70311 -18.03125 -27.39061q-9.359375 -13.703125 -18.015625 -25.828125q-8.671875 12.125 -18.03125 25.828125q-9.359375 13.6875 -17.859375 27.39061q-8.484375 13.6875 -15.9375 26.34375q-7.453125 12.640625 -12.65625 23.046875l-37.09375 0q15.609373 -30.5 36.234375 -62.04686q20.625 -31.546875 43.84375 -64.828125l-76.953125 -113.359375l38.828125 0l59.28125 89.4375l58.578125 -89.4375l38.484375 0l-75.578125 111.96875q23.578125 33.625 44.375 65.515625q20.796875 31.89061 36.75 62.749985l-37.796875 0zm74.53702 0l0 -240.23436l146.64062 0l0 28.78125l-113.015625 0l0 71.40625l100.53125 0l0 28.078125l-100.53125 0l0 83.20311l121.671875 0l0 28.765625l-155.29688 0zm362.59702 0q-7.625 -12.828125 -17.5 -28.765625q-9.875 -15.953125 -21.328125 -33.10936q-11.4375 -17.15625 -23.75 -34.828125q-12.296875 -17.6875 -24.4375 -34.15625q-12.125 -16.46875 -23.5625 -31.03125q-11.4375 -14.5625 -21.140625 -25.65625l0 187.54686l-32.9375 0l0 -240.23436l26.6875 0q16.296875 17.328125 34.84375 40.390625q18.546875 23.046875 36.734375 47.484375q18.203125 24.4375 34.328125 48.015625q16.125 23.578125 27.21875 41.953125l0 -177.84375l32.921875 0l0 240.23436l-28.078125 0zm78.00641 -120.29686q0 -30.84375 9.1875 -54.40625q9.1875 -23.578125 24.953125 -39.34375q15.78125 -15.78125 36.75 -23.75q20.96875 -7.984375 44.546875 -7.984375q23.21875 0 43.84375 7.984375q20.625 7.96875 36.21875 23.75q15.609375 15.765625 24.796875 39.34375q9.1875 23.5625 9.1875 54.40625q0 30.859375 -9.1875 54.4375q-9.1875 23.562485 -24.796875 39.343735q-15.59375 15.765625 -36.21875 23.75q-20.625 7.96875 -43.84375 7.96875q-23.578125 0 -44.546875 -7.96875q-20.96875 -7.984375 -36.75 -23.75q-15.765625 -15.78125 -24.953125 -39.343735q-9.1875 -23.578125 -9.1875 -54.4375zm35.359375 0q0 21.84375 5.546875 39.703125q5.546875 17.84375 15.765625 30.32811q10.234375 12.484375 24.953125 19.25q14.734375 6.75 33.109375 6.75q18.375 0 32.9375 -6.75q14.5625 -6.765625 24.78125 -19.25q10.234375 -12.48436 15.78125 -30.32811q5.546875 -17.859375 5.546875 -39.703125q0 -21.828125 -5.546875 -39.671875q-5.546875 -17.859375 -15.78125 -30.34375q-10.21875 -12.484375 -24.78125 -19.234375q-14.5625 -6.765625 -32.9375 -6.765625q-18.375 0 -33.109375 6.765625q-14.71875 6.75 -24.953125 19.234375q-10.21875 12.484375 -15.765625 30.34375q-5.546875 17.84375 -5.546875 39.671875zm408.69867 120.29686q-7.625 -12.828125 -17.5 -28.765625q-9.875 -15.953125 -21.328125 -33.10936q-11.4375 -17.15625 -23.75 -34.828125q-12.296875 -17.6875 -24.4375 -34.15625q-12.125 -16.46875 -23.5625 -31.03125q-11.437561 -14.5625 -21.140686 -25.65625l0 187.54686l-32.9375 0l0 -240.23436l26.6875 0q16.296875 17.328125 34.84381 40.390625q18.546875 23.046875 36.734375 47.484375q18.203125 24.4375 34.328125 48.015625q16.125 23.578125 27.21875 41.953125l0 -177.84375l32.921875 0l0 240.23436l-28.078125 0z" fill-rule="nonzero"/><path fill="#0c1178" d="m1251.0577 99.95276l144.44092 0l0 237.03937l-144.44092 0z" fill-rule="evenodd"/><path stroke="#efefef" stroke-width="1.0" stroke-linejoin="round" stroke-linecap="butt" d="m1251.0577 99.95276l144.44092 0l0 237.03937l-144.44092 0z" fill-rule="evenodd"/><path fill="#0c1178" d="m1452.4882 86.46457l230.04724 0l0 267.74802l-230.04724 0z" fill-rule="evenodd"/><path stroke="#6a6ca0" stroke-width="4.0" stroke-linejoin="round" stroke-linecap="butt" d="m1452.4882 86.46457l230.04724 0l0 267.74802l-230.04724 0z" fill-rule="evenodd"/><path fill="#06d6a0" d="m1685.6536 66.40157l0 37.291344l-235.37012 0l0 -37.291344z" fill-rule="evenodd"/><path stroke="#06d6a0" stroke-width="1.0" stroke-linejoin="round" stroke-linecap="butt" d="m1685.6536 66.40157l0 37.291344l-235.37012 0l0 -37.291344z" fill-rule="evenodd"/><path fill="#000000" fill-opacity="0.0" d="m1451.0367 158.72441l233.1654 0" fill-rule="evenodd"/><path stroke="#6a6ca0" stroke-width="4.0" stroke-linejoin="round" stroke-linecap="butt" d="m1451.0367 158.72441l233.1654 0" fill-rule="evenodd"/><path fill="#f6b26b" d="m1303.1182 167.15498l0 0c0 -3.4326477 2.7825928 -6.2153473 6.215332 -6.2153473l24.860596 0l0 0c1.6484375 0 3.22937 0.65483093 4.3948975 1.8204346c1.1656494 1.1656036 1.8204346 2.7464905 1.8204346 4.3949127l0 40.829147c0 3.4326324 -2.7827148 6.2153473 -6.215332 6.2153473l-24.860596 0c-3.4327393 0 -6.215332 -2.7827148 -6.215332 -6.2153473z" fill-rule="evenodd"/><path fill="#ef476f" d="m1213.7664 366.63254l37.29138 0l0 193.32285l-37.29138 0z" fill-rule="evenodd"/><path stroke="#ef476f" stroke-width="1.0" stroke-linejoin="round" stroke-linecap="butt" d="m1213.7664 366.63254l37.29138 0l0 193.32285l-37.29138 0z" fill-rule="evenodd"/><path fill="#f6b26b" d="m1464.1024 169.93439l20.787354 0l0 64.50394l-20.787354 0z" fill-rule="evenodd"/><path fill="#f6b26b" d="m1488.1024 169.93439l20.787354 0l0 64.50394l-20.787354 0z" fill-rule="evenodd"/><path fill="#f6b26b" d="m1512.1024 169.93439l20.787354 0l0 64.50394l-20.787354 0z" fill-rule="evenodd"/><path fill="#6a6ca0" d="m1471.5171 278.78217l0 0c0 -15.820587 12.825073 -28.645676 28.64563 -28.645676l0 0c7.59729 0 14.883423 3.0180054 20.255615 8.390121c5.3720703 5.372101 8.390015 12.658234 8.390015 20.255554l0 0c0 15.820557 -12.825073 28.64566 -28.64563 28.64566l0 0c-15.820557 0 -28.64563 -12.825104 -28.64563 -28.64566z" fill-rule="evenodd"/><path fill="#6a6ca0" d="m1654.7191 222.30708l10.677246 0l0 83.086624l-10.677246 0z" fill-rule="evenodd"/><path fill="#000000" fill-opacity="0.0" d="m1451.0367 238.72441l233.1654 0" fill-rule="evenodd"/><path stroke="#6a6ca0" stroke-width="4.0" stroke-linejoin="round" stroke-linecap="butt" d="m1451.0367 238.72441l233.1654 0" fill-rule="evenodd"/><path fill="#6a6ca0" d="m1318.4252 117.12861l6.677246 0l0 43.811028l-6.677246 0z" fill-rule="evenodd"/><path fill="#6a6ca0" d="m1476.9108 117.12861l0 6.677162l-157.10242 0l0 -6.677162z" fill-rule="evenodd"/><path fill="#6a6ca0" d="m1476.9108 109.30315l6.677124 0l0 43.81102l-6.677124 0z" fill-rule="evenodd"/><path fill="#6a6ca0" d="m1491.0315 109.3036l14.929077 0l0 14.929131l-14.929077 0z" fill-rule="evenodd"/><path fill="#6a6ca0" d="m1505.9606 131.98425l10.677246 0l0 18.362198l-10.677246 0z" fill-rule="evenodd"/><path fill="#6a6ca0" d="m1518.6569 105.64624l12.976318 0l0 22.29921l-12.976318 0z" fill-rule="evenodd"/><path fill="#6a6ca0" d="m1494.2572 113.43044l0 6.67717l-12.976318 0l0 -6.67717z" fill-rule="evenodd"/><path fill="#6a6ca0" d="m1495.1575 114.908134l6.677124 0l0 29.039375l-6.677124 0z" fill-rule="evenodd"/><path fill="#6a6ca0" d="m1535.5564 140.83727l0 6.67717l-53.95276 0l0 -6.67717z" fill-rule="evenodd"/><path fill="#6a6ca0" d="m1521.8832 120.10761l6.677246 0l0 29.039375l-6.677246 0z" fill-rule="evenodd"/><path fill="#6a6ca0" d="m1529.4042 143.33376l0 0c0 -5.070572 4.1105957 -9.181091 9.181152 -9.181091l0 0c2.4349365 0 4.7702637 0.96728516 6.4919434 2.6890717c1.7218018 1.7218018 2.689087 4.0570526 2.689087 6.4920197l0 0c0 5.070587 -4.1104736 9.181107 -9.18103 9.181107l0 0c-5.0705566 0 -9.181152 -4.1105194 -9.181152 -9.181107z" fill-rule="evenodd"/><path fill="#6a6ca0" d="m1471.0682 146.87051l0 0c0 -5.070587 4.1104736 -9.181107 9.181152 -9.181107l0 0c2.4349365 0 4.7701416 0.96728516 6.4919434 2.689087c1.7218018 1.7217865 2.689087 4.0570374 2.689087 6.4920197l0 0c0 5.070572 -4.1104736 9.181091 -9.18103 9.181091l0 0c-5.0706787 0 -9.181152 -4.1105194 -9.181152 -9.181091z" fill-rule="evenodd"/><path fill="#6a6ca0" d="m1600.7362 111.25199l12.97644 0l0 45.29133l-12.97644 0z" fill-rule="evenodd"/><path fill="#6a6ca0" d="m1628.5486 111.25199l12.976318 0l0 45.29133l-12.976318 0z" fill-rule="evenodd"/><path fill="#6a6ca0" d="m1656.5538 294.68765l0 6.677185l-141.7638 0l0 -6.677185z" fill-rule="evenodd"/><path fill="#6a6ca0" d="m1654.79 111.25199l12.976318 0l0 45.29133l-12.976318 0z" fill-rule="evenodd"/><path fill="#6a6ca0" d="m1540.4331 260.4252l0 6.6771545l-53.95276 0l0 -6.6771545z" fill-rule="evenodd"/><path fill="#6a6ca0" d="m1496.8241 245.64699l6.677246 0l0 43.81102l-6.677246 0z" fill-rule="evenodd"/><path fill="#6a6ca0" d="m1535.2467 260.4252l6.677124 0l0 35.275574l-6.677124 0z" fill-rule="evenodd"/><path fill="#6a6ca0" d="m1646.9396 207.52231l0 3.4960632l-53.95276 0l0 -3.4960632z" fill-rule="evenodd"/><path fill="#6a6ca0" d="m1592.9868 211.01837l6.677246 0l0 21.102356l-6.677246 0z" fill-rule="evenodd"/><path fill="#6a6ca0" d="m1640.2625 209.8189l6.677124 0l0 22.29921l-6.677124 0z" fill-rule="evenodd"/><path fill="#6a6ca0" d="m1604.6431 196.35712l0 0c0 -2.94841 2.3901367 -5.3385773 5.338501 -5.3385773l0 0c1.4158936 0 2.7738037 0.5624542 3.7750244 1.5636292c1.0012207 1.0011749 1.5635986 2.3590698 1.5635986 3.7749481l0 0c0 2.9484253 -2.3901367 5.3385773 -5.338623 5.3385773l0 0c-2.9483643 0 -5.338501 -2.390152 -5.338501 -5.3385773z" fill-rule="evenodd"/><path fill="#6a6ca0" d="m1625.6194 196.35712l0 0c0 -2.94841 2.3902588 -5.3385773 5.338623 -5.3385773l0 0c1.4158936 0 2.7738037 0.5624542 3.7749023 1.5636292c1.0012207 1.0011749 1.5637207 2.3590698 1.5637207 3.7749481l0 0c0 2.9484253 -2.3902588 5.3385773 -5.338623 5.3385773l0 0c-2.9483643 0 -5.338623 -2.390152 -5.338623 -5.3385773z" fill-rule="evenodd"/><path fill="#6a6ca0" d="m1622.8635 203.07874l16.724365 0l0 7.9370117l-16.724365 0z" fill-rule="evenodd"/><path fill="#6a6ca0" d="m1625.2152 209.06824l11.055176 0l0 21.102371l-11.055176 0z" fill-rule="evenodd"/><path fill="#6a6ca0" d="m1601.6194 203.13518l16.724487 0l0 7.9369965l-16.724487 0z" fill-rule="evenodd"/><path fill="#6a6ca0" d="m1604.4541 209.6588l11.055054 0l0 21.102356l-11.055054 0z" fill-rule="evenodd"/><path fill="#6a6ca0" d="m1632.6246 140.83727l0 6.67717l-22.740112 0l0 -6.67717z" fill-rule="evenodd"/><path fill="#6a6ca0" d="m1659.0367 120.10761l0 6.677162l-22.740112 0l0 -6.677162z" fill-rule="evenodd"/><path fill="#6a6ca0" d="m1594.9829 261.99738l6.677246 0l0 35.275574l-6.677246 0z" fill-rule="evenodd"/><path fill="#6a6ca0" d="m1621.1654 257.4567l0 6.6771545l-26.17334 0l0 -6.6771545z" fill-rule="evenodd"/><path fill="#6a6ca0" d="m1614.4868 264.13385l6.677246 0l0 35.275604l-6.677246 0z" fill-rule="evenodd"/><path fill="#6a6ca0" d="m1628.916 273.1181l0 6.677185l-12.692871 0l0 -6.677185z" fill-rule="evenodd"/><path fill="#6a6ca0" d="m1627.0447 276.45685l0 0c0 -2.9484253 2.3901367 -5.338562 5.338501 -5.338562l0 0c1.4158936 0 2.7738037 0.56243896 3.7750244 1.5636292c1.0010986 1.0011597 1.5635986 2.3590698 1.5635986 3.7749329l0 0c0 2.9484253 -2.3901367 5.3385925 -5.338623 5.3385925l0 0c-2.9483643 0 -5.338501 -2.3901672 -5.338501 -5.3385925z" fill-rule="evenodd"/><path fill="#6a6ca0" d="m1629.0447 276.5958l6.677124 0l0 22.299225l-6.677124 0z" fill-rule="evenodd"/><path fill="#6a6ca0" d="m1616.2782 281.1181l0 6.677185l-33.039307 0l0 -6.677185z" fill-rule="evenodd"/><path fill="#06d6a0" d="m1548.6089 66.40157l37.29138 0l0 254.58267l-37.29138 0z" fill-rule="evenodd"/><path stroke="#06d6a0" stroke-width="1.0" stroke-linejoin="round" stroke-linecap="butt" d="m1548.6089 66.40157l37.29138 0l0 254.58267l-37.29138 0z" fill-rule="evenodd"/><path fill="#6a6ca0" d="m1657.6194 180.35712l0 0c0 -2.94841 2.3902588 -5.3385773 5.338623 -5.3385773l0 0c1.4158936 0 2.7738037 0.5624542 3.7749023 1.5636292c1.0012207 1.0011749 1.5637207 2.3590698 1.5637207 3.7749481l0 0c0 2.9484253 -2.3902588 5.3385773 -5.338623 5.3385773l0 0c-2.9483643 0 -5.338623 -2.390152 -5.338623 -5.3385773z" fill-rule="evenodd"/><path fill="#6a6ca0" d="m1274.9843 143.94753l6.677124 0l0 161.32283l-6.677124 0z" fill-rule="evenodd"/><path fill="#6a6ca0" d="m1360.6456 143.94753l6.677246 0l0 161.32283l-6.677246 0z" fill-rule="evenodd"/><path fill="#6a6ca0" d="m1367.3727 143.94751l0 6.6771545l-92.37793 0l0 -6.6771545z" fill-rule="evenodd"/><path fill="#6a6ca0" d="m1364.3386 221.27034l0 6.67717l-89.35437 0l0 -6.67717z" fill-rule="evenodd"/><path fill="#6a6ca0" d="m1389.0447 301.33246l0 0c0 -5.070587 4.1104736 -9.181122 9.18103 -9.181122l0 0c2.4349365 0 4.7702637 0.9673157 6.4920654 2.689087c1.7218018 1.7218018 2.689087 4.0570374 2.689087 6.492035l0 0c0 5.070587 -4.1105957 9.181091 -9.181152 9.181091l0 0c-5.0705566 0 -9.18103 -4.110504 -9.18103 -9.181091z" fill-rule="evenodd"/><path fill="#6a6ca0" d="m1389.0447 277.33246l0 0c0 -5.070587 4.1104736 -9.181122 9.18103 -9.181122l0 0c2.4349365 0 4.7702637 0.9673157 6.4920654 2.689087c1.7218018 1.7218018 2.689087 4.0570374 2.689087 6.492035l0 0c0 5.070587 -4.1105957 9.181091 -9.181152 9.181091l0 0c-5.0705566 0 -9.18103 -4.110504 -9.18103 -9.181091z" fill-rule="evenodd"/><path fill="#6a6ca0" d="m1389.0447 253.33244l0 0c0 -5.070572 4.1104736 -9.181091 9.18103 -9.181091l0 0c2.4349365 0 4.7702637 0.96728516 6.4920654 2.6890717c1.7218018 1.7218018 2.689087 4.0570526 2.689087 6.4920197l0 0c0 5.0706024 -4.1105957 9.181107 -9.181152 9.181107l0 0c-5.0705566 0 -9.18103 -4.110504 -9.18103 -9.181107z" fill-rule="evenodd"/><path fill="#6a6ca0" d="m1389.0447 229.33244l0 0c0 -5.070572 4.1104736 -9.181091 9.18103 -9.181091l0 0c2.4349365 0 4.7702637 0.96728516 6.4920654 2.6890717c1.7218018 1.7218018 2.689087 4.0570526 2.689087 6.4920197l0 0c0 5.070587 -4.1105957 9.181107 -9.181152 9.181107l0 0c-5.0705566 0 -9.18103 -4.1105194 -9.18103 -9.181107z" fill-rule="evenodd"/><path fill="#6a6ca0" d="m1389.0447 205.33244l0 0c0 -5.070572 4.1104736 -9.181091 9.18103 -9.181091l0 0c2.4349365 0 4.7702637 0.96728516 6.4920654 2.6890717c1.7218018 1.7218018 2.689087 4.0570526 2.689087 6.4920197l0 0c0 5.070587 -4.1105957 9.181107 -9.181152 9.181107l0 0c-5.0705566 0 -9.18103 -4.1105194 -9.18103 -9.181107z" fill-rule="evenodd"/><path fill="#6a6ca0" d="m1389.0447 181.33244l0 0c0 -5.070572 4.1104736 -9.181091 9.18103 -9.181091l0 0c2.4349365 0 4.7702637 0.96728516 6.4920654 2.6890717c1.7218018 1.7218018 2.689087 4.0570526 2.689087 6.4920197l0 0c0 5.070587 -4.1105957 9.181107 -9.181152 9.181107l0 0c-5.0705566 0 -9.18103 -4.1105194 -9.18103 -9.181107z" fill-rule="evenodd"/><path fill="#6a6ca0" d="m1389.0447 157.33244l0 0c0 -5.070572 4.1104736 -9.181091 9.18103 -9.181091l0 0c2.4349365 0 4.7702637 0.96728516 6.4920654 2.6890717c1.7218018 1.7218018 2.689087 4.0570526 2.689087 6.4920197l0 0c0 5.070587 -4.1105957 9.181107 -9.181152 9.181107l0 0c-5.0705566 0 -9.18103 -4.1105194 -9.18103 -9.181107z" fill-rule="evenodd"/><path fill="#6a6ca0" d="m1375.6876 131.20909l0 0c0 -5.0705795 4.1105957 -9.181099 9.181152 -9.181099l0 0c2.4349365 0 4.7702637 0.96728516 6.4920654 2.6890793c1.7216797 1.7217941 2.689087 4.0570374 2.689087 6.4920197l0 0c0 5.070587 -4.1105957 9.181107 -9.181152 9.181107l0 0c-5.0705566 0 -9.181152 -4.1105194 -9.181152 -9.181107z" fill-rule="evenodd"/><path fill="#6a6ca0" d="m1257.4199 302.47156l0 0c0 -5.070587 -4.1104736 -9.181091 -9.18103 -9.181091l0 0c-2.4350586 0 -4.7702637 0.96728516 -6.4920654 2.689087c-1.7218018 1.7217712 -2.689087 4.0570374 -2.689087 6.4920044l0 0c0 5.070587 4.1104736 9.181091 9.181152 9.181091l0 0c5.0705566 0 9.18103 -4.110504 9.18103 -9.181091z" fill-rule="evenodd"/><path fill="#6a6ca0" d="m1257.4199 278.47156l0 0c0 -5.070587 -4.1104736 -9.181091 -9.18103 -9.181091l0 0c-2.4350586 0 -4.7702637 0.96728516 -6.4920654 2.689087c-1.7218018 1.7217712 -2.689087 4.0570374 -2.689087 6.4920044l0 0c0 5.070587 4.1104736 9.181091 9.181152 9.181091l0 0c5.0705566 0 9.18103 -4.110504 9.18103 -9.181091z" fill-rule="evenodd"/><path fill="#6a6ca0" d="m1257.4199 254.47156l0 0c0 -5.070587 -4.1104736 -9.181107 -9.18103 -9.181107l0 0c-2.4350586 0 -4.7702637 0.9673004 -6.4920654 2.689087c-1.7218018 1.7217865 -2.689087 4.0570374 -2.689087 6.4920197l0 0c0 5.070587 4.1104736 9.181091 9.181152 9.181091l0 0c5.0705566 0 9.18103 -4.110504 9.18103 -9.181091z" fill-rule="evenodd"/><path fill="#6a6ca0" d="m1257.4199 230.47156l0 0c0 -5.070587 -4.1104736 -9.181107 -9.18103 -9.181107l0 0c-2.4350586 0 -4.7702637 0.9673004 -6.4920654 2.689087c-1.7218018 1.7217865 -2.689087 4.0570374 -2.689087 6.4920197l0 0c0 5.070587 4.1104736 9.181107 9.181152 9.181107l0 0c5.0705566 0 9.18103 -4.1105194 9.18103 -9.181107z" fill-rule="evenodd"/><path fill="#6a6ca0" d="m1257.4199 206.47156l0 0c0 -5.070587 -4.1104736 -9.181107 -9.18103 -9.181107l0 0c-2.4350586 0 -4.7702637 0.9673004 -6.4920654 2.689087c-1.7218018 1.7217865 -2.689087 4.0570374 -2.689087 6.4920197l0 0c0 5.070587 4.1104736 9.181107 9.181152 9.181107l0 0c5.0705566 0 9.18103 -4.1105194 9.18103 -9.181107z" fill-rule="evenodd"/><path fill="#6a6ca0" d="m1257.4199 182.47156l0 0c0 -5.070587 -4.1104736 -9.181107 -9.18103 -9.181107l0 0c-2.4350586 0 -4.7702637 0.9673004 -6.4920654 2.689087c-1.7218018 1.7217865 -2.689087 4.0570374 -2.689087 6.4920197l0 0c0 5.070587 4.1104736 9.181107 9.181152 9.181107l0 0c5.0705566 0 9.18103 -4.1105194 9.18103 -9.181107z" fill-rule="evenodd"/><path fill="#6a6ca0" d="m1257.4199 158.47156l0 0c0 -5.070587 -4.1104736 -9.181107 -9.18103 -9.181107l0 0c-2.4350586 0 -4.7702637 0.9673004 -6.4920654 2.689087c-1.7218018 1.7217865 -2.689087 4.0570374 -2.689087 6.4920197l0 0c0 5.070587 4.1104736 9.181107 9.181152 9.181107l0 0c5.0705566 0 9.18103 -4.1105194 9.18103 -9.181107z" fill-rule="evenodd"/><path fill="#6a6ca0" d="m1270.4829 131.20909l0 0c0 -5.0705795 -4.1104736 -9.181099 -9.18103 -9.181099l0 0c-2.4350586 0 -4.7702637 0.96728516 -6.4920654 2.6890793c-1.7218018 1.7217941 -2.689087 4.0570374 -2.689087 6.4920197l0 0c0 5.070587 4.1104736 9.181107 9.181152 9.181107l0 0c5.0705566 0 9.18103 -4.1105194 9.18103 -9.181107z" fill-rule="evenodd"/><path fill="#ef476f" d="m1213.7664 169.93439l37.29138 0l0 193.32285l-37.29138 0z" fill-rule="evenodd"/><path stroke="#ef476f" stroke-width="1.0" stroke-linejoin="round" stroke-linecap="butt" d="m1213.7664 169.93439l37.29138 0l0 193.32285l-37.29138 0z" fill-rule="evenodd"/><path fill="#ef476f" d="m1395.4987 169.93439l37.29138 0l0 193.32285l-37.29138 0z" fill-rule="evenodd"/><path stroke="#ef476f" stroke-width="1.0" stroke-linejoin="round" stroke-linecap="butt" d="m1395.4987 169.93439l37.29138 0l0 193.32285l-37.29138 0z" fill-rule="evenodd"/><path fill="#6a6ca0" d="m1334.4829 99.20909l0 0c0 -5.0705795 -4.1104736 -9.181099 -9.18103 -9.181099l0 0c-2.4350586 0 -4.7702637 0.96728516 -6.4920654 2.6890793c-1.7218018 1.7217941 -2.689087 4.0570374 -2.689087 6.4920197l0 0c0 5.0705795 4.1104736 9.181099 9.181152 9.181099l0 0c5.0705566 0 9.18103 -4.1105194 9.18103 -9.181099z" fill-rule="evenodd"/><path fill="#6a6ca0" d="m1366.4829 107.20909l0 0c0 -5.0705795 -4.1104736 -9.181099 -9.18103 -9.181099l0 0c-2.4350586 0 -4.7702637 0.96728516 -6.4920654 2.6890793c-1.7218018 1.7217941 -2.689087 4.0570374 -2.689087 6.4920197l0 0c0 5.0705795 4.1104736 9.181099 9.181152 9.181099l0 0c5.0705566 0 9.18103 -4.1105194 9.18103 -9.181099z" fill-rule="evenodd"/><path fill="#6a6ca0" d="m1302.4829 107.20909l0 0c0 -5.0705795 -4.1104736 -9.181099 -9.18103 -9.181099l0 0c-2.4350586 0 -4.7702637 0.96728516 -6.4920654 2.6890793c-1.7218018 1.7217941 -2.689087 4.0570374 -2.689087 6.4920197l0 0c0 5.0705795 4.1104736 9.181099 9.181152 9.181099l0 0c5.0705566 0 9.18103 -4.1105194 9.18103 -9.181099z" fill-rule="evenodd"/><path fill="#ef476f" d="m1213.7664 171.99213l0 0c0 -58.315247 49.02881 -105.58942 109.509766 -105.59055c60.480835 -0.0011367798 109.5116 47.271194 109.513916 105.58645l-37.1615 0.0013885498c-0.0015869141 -37.791763 -32.39441 -68.42705 -72.35181 -68.4263c-39.957397 7.5531006E-4 -72.348755 30.637253 -72.348755 68.429016z" fill-rule="evenodd"/><path stroke="#ef476f" stroke-width="1.0" stroke-linejoin="round" stroke-linecap="butt" d="m1213.7664 171.99213l0 0c0 -58.315247 49.02881 -105.58942 109.509766 -105.59055c60.480835 -0.0011367798 109.5116 47.271194 109.513916 105.58645l-37.1615 0.0013885498c-0.0015869141 -37.791763 -32.39441 -68.42705 -72.35181 -68.4263c-39.957397 7.5531006E-4 -72.348755 30.637253 -72.348755 68.429016z" fill-rule="evenodd"/><path fill="#0c1178" d="m1158.2389 310.51443l582.61414 0l0 282.04727l-582.61414 0z" fill-rule="evenodd"/><path fill="#000000" fill-opacity="0.0" d="m1753.4541 -33.48819l1403.5591 0l0 314.96063l-1403.5591 0z" fill-rule="evenodd"/><path fill="#f6b26b" d="m1989.5166 188.01492q0 31.203125 -9.71875 54.265625q-9.703125 23.046875 -27.390625 38.125q-17.671875 15.078125 -42.28125 22.53125q-24.609375 7.453125 -54.078125 7.453125q-14.5625 0 -32.0625 -1.21875q-17.5 -1.203125 -31.71875 -4.671875l0 -232.95312q14.21875 -3.46875 31.71875 -4.671875q17.5 -1.21875 32.0625 -1.21875q29.46875 0 54.078125 7.453125q24.609375 7.453125 42.28125 22.53125q17.6875 15.078125 27.390625 38.140625q9.71875 23.046875 9.71875 54.234375zm-130.6875 92.90625q47.828125 0 71.40625 -24.4375q23.578125 -24.4375 23.578125 -68.46875q0 -44.015625 -23.578125 -68.453125q-23.578125 -24.4375 -71.40625 -24.4375q-14.21875 0 -22.015625 0.34375q-7.796875 0.34375 -10.921875 0.6875l0 183.73438q3.125 0.34375 10.921875 0.6875q7.796875 0.34375 22.015625 0.34375zm334.51685 27.390625q-5.890625 -15.59375 -11.09375 -30.671875q-5.203125 -15.09375 -10.75 -30.6875l-108.84375 0l-21.843872 61.359375l-35.015625 0q13.875 -38.125 26.0 -70.53125q12.140625 -32.421875 23.750122 -61.53125q11.609375 -29.125 23.046875 -55.640625q11.453125 -26.53125 23.921875 -52.53125l30.859375 0q12.484375 26.0 23.921875 52.53125q11.4375 26.515625 23.046875 55.640625q11.609375 29.109375 23.734375 61.53125q12.140625 32.40625 26.015625 70.53125l-36.75 0zm-31.546875 -89.09375q-11.09375 -30.15625 -22.015625 -58.40625q-10.90625 -28.25 -22.703125 -54.25q-12.125 26.0 -23.046875 54.25q-10.921875 28.25 -21.671875 58.40625l89.4375 0zm84.59009 -31.203125q0 -30.84375 9.1875 -54.40625q9.1875 -23.578125 24.953125 -39.34375q15.78125 -15.78125 36.75 -23.75q20.96875 -7.984375 44.546875 -7.984375q23.21875 0 43.84375 7.984375q20.625 7.96875 36.21875 23.75q15.609375 15.765625 24.796875 39.34375q9.1875 23.5625 9.1875 54.40625q0 27.046875 -6.9375 48.203125q-6.9375 21.140625 -19.25 36.5625q-12.296875 15.421875 -28.765625 24.953125q-16.453125 9.53125 -35.171875 13.0q0.34375 7.984375 7.09375 14.046875q6.765625 6.0625 17.15625 10.21875q10.40625 4.171875 23.234375 6.9375q12.828125 2.78125 25.65625 4.15625l-7.96875 26.34375q-18.03125 -2.421875 -34.5 -6.40625q-16.46875 -3.984375 -29.8125 -10.578125q-13.34375 -6.578125 -22.359375 -16.8125q-9.015625 -10.21875 -12.125 -25.46875q-21.84375 -1.390625 -41.265625 -10.234375q-19.40625 -8.84375 -33.625 -24.609375q-14.203125 -15.78125 -22.53125 -38.3125q-8.3125 -22.53125 -8.3125 -52.0zm35.359375 0q0 21.84375 5.546875 39.703125q5.546875 17.84375 15.765625 30.328125q10.234375 12.484375 24.953125 19.25q14.734375 6.75 33.109375 6.75q18.375 0 32.9375 -6.75q14.5625 -6.765625 24.78125 -19.25q10.234375 -12.484375 15.78125 -30.328125q5.546875 -17.859375 5.546875 -39.703125q0 -21.828125 -5.546875 -39.671875q-5.546875 -17.859375 -15.78125 -30.34375q-10.21875 -12.484375 -24.78125 -19.234375q-14.5625 -6.765625 -32.9375 -6.765625q-18.375 0 -33.109375 6.765625q-14.71875 6.75 -24.953125 19.234375q-10.21875 12.484375 -15.765625 30.34375q-5.546875 17.84375 -5.546875 39.671875z" fill-rule="nonzero"/></g></svg>