<svg version="1.1" viewBox="0.0 0.0 467.8530183727034 489.0813648293963" fill="none" stroke="none" stroke-linecap="square" stroke-miterlimit="10" xmlns:xlink="http://www.w3.org/1999/xlink" xmlns="http://www.w3.org/2000/svg"><clipPath id="p.0"><path d="m0 0l467.85303 0l0 489.08136l-467.85303 0l0 -489.08136z" clip-rule="nonzero"/></clipPath><g clip-path="url(#p.0)"><path fill="#000000" fill-opacity="0.0" d="m0 0l467.85303 0l0 489.08136l-467.85303 0z" fill-rule="evenodd"/><path fill="#0c1178" d="m-4.1601048 -4.1601048l504.88187 0l0 504.88187l-504.88187 0z" fill-rule="evenodd"/><path fill="#f3f3f3" d="m125.4846 -0.001312336l218.82083 0l0 0c33.089172 0 64.82306 13.144616 88.22064 36.542183c23.397552 23.397564 36.542175 55.131477 36.542175 88.22063l0 436.62302c0 0.0021362305 -0.001739502 0.00390625 -0.00390625 0.00390625l-468.34256 -0.00390625l0 0c-0.0021554828 0 -0.0039028525 -0.0017700195 -0.0039028525 -0.00390625l0.0039028525 -436.6191l0 0c0 -68.904594 55.85821 -124.76281 124.76281 -124.76281z" fill-rule="evenodd"/><path fill="#0c1178" d="m144.37782 44.254593l181.06062 0l0 0c27.379211 0 53.637054 10.87635 72.9971 30.236382c19.360016 19.360031 30.236359 45.617867 30.236359 72.99708l0 421.2705c0 0.0017700195 -0.0014343262 0.0032348633 -0.0032043457 0.0032348633l-387.52435 -0.0032348633l0 0c-0.0017814636 0 -0.003227234 -0.0014648438 -0.003227234 -0.0032348633l0.003227234 -421.26727l0 0c0 -57.01426 46.2192 -103.23346 103.23347 -103.23346z" fill-rule="evenodd"/><path fill="#f3f3f3" d="m164.19911 87.11811l149.55455 0l0 0c22.61499 0 44.30374 8.983772 60.294952 24.974998c15.991241 15.991226 24.975006 37.679962 24.975006 60.294968l0 317.37573c0 0.0014648438 -0.0011901855 0.0026550293 -0.0026550293 0.0026550293l-320.09183 -0.0026550293l0 0c-0.0014724731 0 -0.0026626587 -0.0012207031 -0.0026626587 -0.0026855469l0.0026626587 -317.37305l0 0c0 -47.0933 38.176666 -85.269966 85.26998 -85.269966z" fill-rule="evenodd"/><path fill="#0c1178" d="m186.00673 140.91339l109.20439 0l0 0c16.513428 0 32.350494 6.5599213 44.027252 18.23668c11.676758 11.676758 18.236694 27.51384 18.236694 44.027252l0 292.7282c0 0.0010681152 -8.8500977E-4 0.001953125 -0.001953125 0.001953125l-233.73033 -0.001953125l0 0c-0.0010757446 0 -0.0019454956 -8.8500977E-4 -0.0019454956 -0.001953125l0.0019454956 -292.72626l0 0c0 -34.38742 27.87651 -62.26393 62.263947 -62.26393z" fill-rule="evenodd"/><path fill="#ffe74c" d="m184.49344 222.19194l0 0c0 -9.462952 7.6712494 -17.134201 17.134201 -17.134201l68.534744 0l0 0c4.544281 0 8.902435 1.8052063 12.115723 5.0184937c3.2132874 3.2132874 5.0184937 7.5714417 5.0184937 12.115707l0 96.66072c0 9.462982 -7.6712646 17.134216 -17.134216 17.134216l-68.534744 0c-9.462952 0 -17.134201 -7.671234 -17.134201 -17.134216z" fill-rule="evenodd"/></g></svg>